<svg width="10" height="11" viewBox="0 0 10 11" fill="none" xmlns="http://www.w3.org/2000/svg">
<path d="M0.701138 4.00732C0.673029 3.44909 0.820701 2.89769 1.11953 2.43536L1.19737 2.32168L1.20381 2.31545L1.25785 2.25204L1.31446 2.18729L1.3209 2.18062C1.42898 2.06981 1.54864 1.97236 1.67774 1.88914L1.71419 1.86606L1.75065 1.84464L1.83643 1.79525C1.87117 1.77878 1.90891 1.7592 1.94365 1.74274C1.96896 1.73295 1.99426 1.72004 2.01957 1.71025C2.06718 1.69023 2.11779 1.67065 2.1684 1.65418C2.18555 1.64573 2.20357 1.63905 2.22201 1.6346L2.24249 1.62637L2.2649 1.61814C2.49565 1.54917 2.73283 1.50155 2.97258 1.47975L2.94775 1.48265V0.985336C2.94775 0.785933 3.1086 0.624704 3.30753 0.624704C3.50646 0.624704 3.66775 0.785933 3.66775 0.985336V2.55721C3.66775 2.75661 3.50646 2.91829 3.30753 2.91829C3.1086 2.91829 2.94775 2.75661 2.94775 2.55721L2.94778 2.1938C2.7116 2.21745 2.4797 2.27621 2.25975 2.36929C1.69217 2.62463 1.42148 3.1109 1.39583 3.8815L1.39381 4.00554V4.19912H9.00203V4.00065C9.01661 3.64376 8.94498 3.28866 8.79315 2.96781C8.64733 2.69325 8.41401 2.4801 8.13222 2.3644C7.95277 2.28715 7.76481 2.23325 7.57273 2.20384L7.44775 2.18865L7.44777 2.55539C7.44777 2.75394 7.28667 2.91475 7.08777 2.91475C6.88887 2.91475 6.72777 2.75394 6.72777 2.55539L6.72775 2.16165L3.67126 2.16193V1.44682L6.72775 1.44665L6.72777 0.983221C6.72597 0.784678 6.88617 0.622519 7.08507 0.621163C7.28397 0.619824 7.44642 0.779287 7.44777 0.97783L7.44806 1.47989C7.62274 1.49712 7.79601 1.5276 7.96653 1.57114L8.13608 1.61903C8.14981 1.6217 8.1601 1.62526 8.17897 1.63193C8.19784 1.63861 8.21371 1.64528 8.23258 1.65151C8.28276 1.66798 8.32951 1.68756 8.37798 1.70758C8.40586 1.71737 8.43159 1.73028 8.45347 1.74007C8.49121 1.75653 8.52981 1.77611 8.56069 1.79258C8.59243 1.80904 8.62288 1.82729 8.64947 1.84197C8.67606 1.85666 8.69665 1.87312 8.71895 1.88647C8.8161 1.94922 8.90842 2.01997 8.99465 2.0978L9.0788 2.17795L9.08266 2.18462L9.14147 2.24703L9.19675 2.31278L9.19975 2.31901C9.5232 2.76633 9.69719 3.30959 9.69775 3.86617L9.69427 4.00554V4.19912H9.69775V8.07624C9.69775 9.76695 8.75355 10.6212 6.8823 10.6212H3.50891C1.64196 10.6212 0.697754 9.76695 0.697754 8.07624V4.19912H0.701138V4.00732ZM7.25569 7.7443C7.02393 7.7443 6.83939 7.93461 6.83939 8.16919C6.84368 8.40376 7.02823 8.59408 7.25569 8.59408C7.48316 8.59408 7.66771 8.40376 7.66771 8.16919C7.66771 7.93461 7.48316 7.7443 7.25569 7.7443ZM5.1999 7.73987C4.96814 7.7443 4.78359 7.93461 4.78359 8.16919C4.78359 8.40376 4.97243 8.59408 5.1999 8.59408C5.42737 8.59408 5.61192 8.40376 5.61192 8.16476C5.60763 7.93461 5.42737 7.7443 5.1999 7.73987ZM3.13981 7.73987C2.90805 7.73987 2.72351 7.93461 2.7278 8.16919C2.7278 8.40376 2.91235 8.59408 3.13981 8.59408C3.36728 8.59408 3.55183 8.39933 3.55183 8.16476C3.55183 7.93018 3.36728 7.73987 3.13981 7.73987ZM7.25569 5.92966C7.02393 5.92966 6.84368 6.11998 6.84368 6.35455C6.84368 6.58913 7.02823 6.77944 7.25569 6.77944C7.48316 6.77944 7.66771 6.58913 7.66771 6.35455C7.66771 6.11998 7.48316 5.92966 7.25569 5.92966ZM5.1999 5.92523C4.96814 5.92966 4.78359 6.11998 4.78359 6.35455C4.78359 6.58913 4.97243 6.77944 5.1999 6.77944C5.42737 6.77944 5.61192 6.58913 5.61192 6.35012C5.61192 6.11998 5.42737 5.92966 5.1999 5.92523ZM3.14411 5.92523C2.91235 5.92523 2.7278 6.11998 2.7278 6.35455C2.7278 6.58913 2.91235 6.77944 3.13981 6.77944C3.37157 6.77944 3.55612 6.5847 3.55183 6.35012C3.55183 6.11555 3.36728 5.92523 3.14411 5.92523Z" fill="#5C5D69"/>
</svg>
