<svg width="11" height="11" viewBox="0 0 11 11" fill="none" xmlns="http://www.w3.org/2000/svg">
<path d="M5.69775 0.621155C2.94062 0.621155 0.697754 2.86402 0.697754 5.62115C0.697754 8.37829 2.94062 10.6212 5.69775 10.6212C8.45489 10.6212 10.6978 8.37829 10.6978 5.62115C10.6978 2.86402 8.45489 0.621155 5.69775 0.621155ZM7.26855 7.1485C7.11754 7.3686 6.91969 7.53374 6.66033 7.65701C6.46902 7.7418 6.26986 7.79388 6.06415 7.81325V8.48533C6.06415 8.58792 5.98119 8.67062 5.87886 8.67062H5.32429C5.2217 8.67062 5.139 8.58766 5.139 8.48533V7.75515C5.03458 7.7295 4.93172 7.69365 4.82861 7.64654C4.55146 7.53348 4.32796 7.34924 4.17119 7.1014C4.0139 6.87135 3.92937 6.60257 3.91628 6.28512C3.9121 6.18462 3.98878 6.0993 4.08901 6.0925L4.58705 6.05848C4.68729 6.05272 4.77208 6.12364 4.78386 6.22152C4.80375 6.38823 4.85059 6.52615 4.91969 6.62037C4.99741 6.73709 5.09713 6.81377 5.24787 6.87554C5.56716 7.01608 5.97334 7.01634 6.25441 6.90825C6.37899 6.85486 6.46719 6.79362 6.52555 6.71825C6.57553 6.64654 6.60014 6.57117 6.60014 6.48114C6.60014 6.39661 6.57841 6.33432 6.52581 6.2668C6.49833 6.23016 6.42741 6.16159 6.24081 6.087C6.14973 6.0569 5.91314 5.98965 5.55303 5.90249C5.13246 5.79755 4.88907 5.71799 4.73806 5.63607C4.51325 5.51725 4.34444 5.36913 4.23845 5.19666C4.12984 5.02105 4.07488 4.82058 4.07488 4.60126C4.07488 4.36258 4.14162 4.13516 4.273 3.92526C4.40909 3.72061 4.60982 3.55991 4.85635 3.45628C4.93879 3.41885 5.03248 3.38745 5.13926 3.36232V2.74442C5.13926 2.64183 5.22222 2.55913 5.32455 2.55913H5.87912C5.98171 2.55913 6.06441 2.64209 6.06441 2.74442V3.32961C6.23112 3.35735 6.38553 3.39949 6.52555 3.45523C6.79642 3.57693 6.99296 3.73997 7.13324 3.95693C7.27378 4.16159 7.35308 4.40734 7.36695 4.68292C7.37192 4.78394 7.29498 4.8703 7.19396 4.87711L6.68414 4.91139C6.58574 4.9182 6.50121 4.84806 6.48786 4.75149C6.45933 4.54238 6.38946 4.39634 6.27404 4.30553C6.14293 4.19378 5.95266 4.1417 5.68676 4.1417C5.42636 4.1417 5.21725 4.19221 5.09765 4.28433C5.00055 4.35918 4.95502 4.44921 4.95502 4.5675C4.95502 4.65858 4.98354 4.73003 5.03981 4.78028C5.06965 4.80383 5.23243 4.90982 5.75873 5.02053C6.19344 5.12312 6.51299 5.21655 6.68807 5.29192C6.96706 5.41754 7.16648 5.57954 7.28346 5.77426C7.41406 5.96975 7.47975 6.18855 7.47975 6.4356C7.47975 6.6926 7.40882 6.93233 7.26855 7.1485Z" fill="#5C5D69"/>
</svg>
