<svg width="258" height="257" viewBox="0 0 258 257" fill="none" xmlns="http://www.w3.org/2000/svg">
<path d="M13.7977 37.107C5.04808 50.3494 0.307394 65.8361 0.144993 81.7071C-0.017408 97.5781 4.40538 113.159 12.8822 126.577C21.3589 139.996 33.5293 150.682 47.9314 157.352C62.3336 164.023 78.3552 166.394 94.0719 164.18C95.0028 164.033 95.9552 164.107 96.8521 164.397C97.749 164.686 98.5652 165.182 99.2348 165.846L130.129 196.74C131.516 198.128 133.168 199.225 134.986 199.966C136.804 200.707 138.752 201.076 140.715 201.053C142.678 201.03 144.617 200.614 146.417 199.83C148.217 199.047 149.842 197.911 151.197 196.49C152.618 195.155 154.288 194.113 156.112 193.424C157.936 192.735 159.878 192.412 161.827 192.474C163.776 192.536 165.693 192.981 167.47 193.784C169.247 194.588 170.847 195.733 172.181 197.156L184.256 209.23C185.644 210.618 186.741 212.27 187.482 214.088C188.223 215.906 188.592 217.854 188.569 219.817C188.546 221.78 188.13 223.719 187.346 225.519C186.563 227.319 185.427 228.944 184.006 230.298C182.64 231.747 181.58 233.457 180.889 235.324C180.198 237.192 179.89 239.18 179.983 241.169C180.076 243.158 180.569 245.108 181.432 246.903C182.294 248.698 183.51 250.301 185.005 251.616L186.92 253.531C189.469 256.051 192.912 257.459 196.496 257.445L240.797 257.445C242.986 257.451 245.155 257.025 247.178 256.19C249.202 255.356 251.04 254.129 252.588 252.581C254.136 251.034 255.363 249.195 256.197 247.172C257.032 245.148 257.458 242.979 257.452 240.79L257.452 196.49C257.466 192.905 256.058 189.462 253.538 186.913L165.852 99.228C165.189 98.5584 164.693 97.7422 164.404 96.8453C164.114 95.9484 164.04 94.996 164.187 94.0651C166.793 75.5425 163.022 56.6843 153.493 40.5881C143.965 24.4919 129.246 12.1148 111.753 5.48971C94.2606 -1.13535 75.035 -1.61443 57.2343 4.13116C39.4335 9.87676 24.116 21.5054 13.7977 37.107ZM90.9076 90.9008C87.6136 94.1947 83.4169 96.4379 78.8481 97.3467C74.2793 98.2555 69.5436 97.789 65.2399 96.0064C60.9361 94.2237 57.2577 91.2049 54.6696 87.3316C52.0816 83.4584 50.7003 78.9047 50.7003 74.2463C50.7003 69.588 52.0816 65.0343 54.6697 61.1611C57.2577 57.2878 60.9361 54.269 65.2399 52.4863C69.5436 50.7037 74.2793 50.2372 78.8481 51.146C83.4169 52.0548 87.6136 54.298 90.9076 57.5919C95.3246 62.009 97.806 67.9997 97.806 74.2464C97.806 80.493 95.3246 86.4837 90.9076 90.9008Z" fill="url(#paint0_linear_0_52)"/>
<defs>
<linearGradient id="paint0_linear_0_52" x1="32.7336" y1="32.7336" x2="244.129" y2="264.129" gradientUnits="userSpaceOnUse">
<stop stop-color="white" stop-opacity="0.8" />
<stop offset="1" stop-color="white" stop-opacity="0"/>
</linearGradient>
</defs>
</svg>
