<svg width="214" height="222" viewBox="0 0 214 222" fill="none" xmlns="http://www.w3.org/2000/svg">
<path d="M208.164 86.5839L118.99 4.70866C115.715 1.67963 111.434 -0.000304167 106.993 4.1308e-08C102.552 0.00030425 98.2722 1.68083 94.9971 4.7103L5.83857 86.5834C4.00168 88.2727 2.53381 90.3304 1.52871 92.625C0.523609 94.9196 0.00336384 97.4007 0.00119628 99.9098V203.577C-0.0499421 208.103 1.54001 212.492 4.47138 215.916C6.14138 217.833 8.19781 219.368 10.5029 220.417C12.8079 221.466 15.3084 222.005 17.8367 221.999H71.295C73.6598 221.999 75.9278 221.05 77.6 219.361C79.2721 217.672 80.2116 215.382 80.2116 212.993V158.954C80.2116 156.565 81.151 154.275 82.8232 152.586C84.4954 150.897 86.7634 149.949 89.1282 149.949H124.795C127.159 149.949 129.427 150.897 131.1 152.586C132.772 154.275 133.711 156.565 133.711 158.954V212.993C133.711 215.382 134.651 217.672 136.323 219.361C137.995 221.05 140.263 221.999 142.628 221.999H196.191C199.121 222.037 202.012 221.318 204.589 219.909C207.433 218.359 209.809 216.061 211.466 213.258C213.122 210.455 213.998 207.252 214 203.988V99.9103C213.998 97.4013 213.477 94.9204 212.473 92.6259C211.468 90.3314 210 88.2736 208.164 86.5839Z" fill="url(#paint0_linear_0_38)"/>
<defs>
<linearGradient id="paint0_linear_0_38" x1="10" y1="8.22221" x2="10" y2="230.778" gradientUnits="userSpaceOnUse">
<stop stop-color="white" stop-opacity="0.9" />
<stop offset="1" stop-color="white" stop-opacity="0"/>
</linearGradient>
</defs>
</svg>
