<svg width="10" height="10" viewBox="0 0 10 10" fill="none" xmlns="http://www.w3.org/2000/svg">
<path d="M8.96883 4.32764L5.42564 0.950448C5.2955 0.825507 5.12543 0.756213 4.94897 0.756226C4.77251 0.756238 4.60245 0.825556 4.47232 0.950516L0.929741 4.32761C0.856755 4.3973 0.798431 4.48217 0.758495 4.57682C0.718559 4.67147 0.697888 4.77381 0.697801 4.8773V9.15336C0.69577 9.34006 0.758944 9.52109 0.875418 9.66233C0.941772 9.7414 1.02348 9.8047 1.11507 9.84797C1.20666 9.89124 1.30601 9.91348 1.40647 9.91321H3.53055C3.62452 9.91321 3.71463 9.87408 3.78107 9.80442C3.84752 9.73476 3.88484 9.64028 3.88484 9.54177V7.31275C3.88484 7.21423 3.92217 7.11975 3.98861 7.05009C4.05505 6.98043 4.14517 6.9413 4.23913 6.9413H5.65629C5.75025 6.9413 5.84036 6.98043 5.90681 7.05009C5.97325 7.11975 6.01057 7.21423 6.01057 7.31275V9.54177C6.01057 9.64028 6.0479 9.73476 6.11434 9.80442C6.18078 9.87408 6.2709 9.91321 6.36486 9.91321H8.49313C8.60954 9.91481 8.7244 9.88514 8.82679 9.82705C8.93979 9.76309 9.03421 9.66829 9.10003 9.55268C9.16586 9.43708 9.20065 9.30496 9.20073 9.17032V4.87732C9.20063 4.77383 9.17996 4.6715 9.14004 4.57686C9.10011 4.48221 9.0418 4.39733 8.96883 4.32764Z" fill="#5C5D69"/>
</svg>
