<svg width="202" height="232" viewBox="0 0 202 232" fill="none" xmlns="http://www.w3.org/2000/svg">
<path d="M179.556 55.2381H157.111C157.111 24.7467 131.973 0 101 0C70.0267 0 44.8889 24.7467 44.8889 55.2381H22.4444C10.0439 55.2381 0.112222 65.1257 0.112222 77.3333L0 209.905C0 222.112 10.0439 232 22.4444 232H179.556C191.956 232 202 222.112 202 209.905V77.3333C202 65.1257 191.956 55.2381 179.556 55.2381ZM101 22.0952C119.573 22.0952 134.667 36.9543 134.667 55.2381H67.3333C67.3333 36.9543 82.4272 22.0952 101 22.0952ZM101 132.571C70.0267 132.571 44.8889 107.825 44.8889 77.3333H67.3333C67.3333 95.6171 82.4272 110.476 101 110.476C119.573 110.476 134.667 95.6171 134.667 77.3333H157.111C157.111 107.825 131.973 132.571 101 132.571Z" fill="url(#paint0_linear_0_45)"/>
<defs>
<linearGradient id="paint0_linear_0_45" x1="101" y1="8.59258" x2="101" y2="253.407" gradientUnits="userSpaceOnUse">
<stop stop-color="white" stop-opacity="0.8"/>
<stop offset="1" stop-color="white" stop-opacity="0"/>
</linearGradient>
</defs>
</svg>
