<svg xmlns="http://www.w3.org/2000/svg">
    <symbol id="dashboard" viewBox="0 0 24 24">
        <svg
            width="26"
            height="26"
            viewBox="0 0 26 26"
            fill="none"
            xmlns="http://www.w3.org/2000/svg"
        >
            <path
                opacity="0.3"
                d="M1.44444 14.4444H10.1111C10.9056 14.4444 11.5556 13.7944 11.5556 13V1.44444C11.5556 0.65 10.9056 0 10.1111 0H1.44444C0.65 0 0 0.65 0 1.44444V13C0 13.7944 0.65 14.4444 1.44444 14.4444ZM1.44444 26H10.1111C10.9056 26 11.5556 25.35 11.5556 24.5556V18.7778C11.5556 17.9833 10.9056 17.3333 10.1111 17.3333H1.44444C0.65 17.3333 0 17.9833 0 18.7778V24.5556C0 25.35 0.65 26 1.44444 26ZM15.8889 26H24.5556C25.35 26 26 25.35 26 24.5556V13C26 12.2056 25.35 11.5556 24.5556 11.5556H15.8889C15.0944 11.5556 14.4444 12.2056 14.4444 13V24.5556C14.4444 25.35 15.0944 26 15.8889 26ZM14.4444 1.44444V7.22222C14.4444 8.01667 15.0944 8.66667 15.8889 8.66667H24.5556C25.35 8.66667 26 8.01667 26 7.22222V1.44444C26 0.65 25.35 0 24.5556 0H15.8889C15.0944 0 14.4444 0.65 14.4444 1.44444Z"
                fill="#000000"
            />
        </svg>
    </symbol>

    <symbol id="dashboard" viewBox="0 0 24 24">
        <svg
            width="26"
            height="26"
            viewBox="0 0 26 26"
            fill="none"
            xmlns="http://www.w3.org/2000/svg"
        >
            <path
                opacity="0.3"
                d="M1.44444 14.4444H10.1111C10.9056 14.4444 11.5556 13.7944 11.5556 13V1.44444C11.5556 0.65 10.9056 0 10.1111 0H1.44444C0.65 0 0 0.65 0 1.44444V13C0 13.7944 0.65 14.4444 1.44444 14.4444ZM1.44444 26H10.1111C10.9056 26 11.5556 25.35 11.5556 24.5556V18.7778C11.5556 17.9833 10.9056 17.3333 10.1111 17.3333H1.44444C0.65 17.3333 0 17.9833 0 18.7778V24.5556C0 25.35 0.65 26 1.44444 26ZM15.8889 26H24.5556C25.35 26 26 25.35 26 24.5556V13C26 12.2056 25.35 11.5556 24.5556 11.5556H15.8889C15.0944 11.5556 14.4444 12.2056 14.4444 13V24.5556C14.4444 25.35 15.0944 26 15.8889 26ZM14.4444 1.44444V7.22222C14.4444 8.01667 15.0944 8.66667 15.8889 8.66667H24.5556C25.35 8.66667 26 8.01667 26 7.22222V1.44444C26 0.65 25.35 0 24.5556 0H15.8889C15.0944 0 14.4444 0.65 14.4444 1.44444Z"
                fill="#000000"
            />
        </svg>
    </symbol>

</svg>