<svg width="134" height="112" viewBox="0 0 134 112" fill="none" xmlns="http://www.w3.org/2000/svg">
<path d="M27.9167 44.8C24.5667 44.8 22.3333 42.56 22.3333 39.2C22.3333 17.36 39.6417 0 61.4167 0C78.1667 0 93.2417 11.2 98.825 27.44C99.3833 30.24 98.2667 33.6 94.9167 34.16C92.125 35.28 88.775 33.6 87.6583 30.8C84.3083 19.04 73.7 11.2 61.4167 11.2C45.7833 11.2 33.5 23.52 33.5 39.2C33.5 42.56 31.2667 44.8 27.9167 44.8Z" fill="#B9BABB"/>
<path d="M100.5 89.6C97.15 89.6 94.9167 87.36 94.9167 84C94.9167 80.64 97.15 78.4 100.5 78.4C112.783 78.4 122.833 68.32 122.833 56C122.833 43.68 112.783 33.6 100.5 33.6C98.825 33.6 96.5917 33.6 94.9167 34.16C92.125 34.72 88.775 33.04 88.2167 30.24C87.6583 27.44 89.3333 24.08 92.125 23.52C94.9167 22.96 97.7083 22.4 100.5 22.4C118.925 22.4 134 37.52 134 56C134 74.48 118.925 89.6 100.5 89.6ZM44.6667 89.6H27.9167C24.5667 89.6 22.3333 87.36 22.3333 84C22.3333 80.64 24.5667 78.4 27.9167 78.4H44.6667C48.0167 78.4 50.25 80.64 50.25 84C50.25 87.36 48.0167 89.6 44.6667 89.6Z" fill="#B9BABB"/>
<path d="M100.5 89.6H89.3333C85.9833 89.6 83.75 87.36 83.75 84C83.75 80.64 85.9833 78.4 89.3333 78.4H100.5C103.85 78.4 106.083 80.64 106.083 84C106.083 87.36 103.85 89.6 100.5 89.6ZM27.9167 89.6C12.2833 89.6 0 77.28 0 61.6C0 45.92 12.2833 33.6 27.9167 33.6C31.2667 33.6 33.5 35.84 33.5 39.2C33.5 42.56 31.2667 44.8 27.9167 44.8C18.425 44.8 11.1667 52.08 11.1667 61.6C11.1667 71.12 18.425 78.4 27.9167 78.4C31.2667 78.4 33.5 80.64 33.5 84C33.5 87.36 31.2667 89.6 27.9167 89.6ZM67 112C63.65 112 61.4167 109.76 61.4167 106.4V50.4C61.4167 47.04 63.65 44.8 67 44.8C70.35 44.8 72.5833 47.04 72.5833 50.4V106.4C72.5833 109.76 70.35 112 67 112Z" fill="#B9BABB"/>
<path d="M50.25 72.8C48.575 72.8 47.4583 72.24 46.3417 71.12C44.1083 68.88 44.1083 65.52 46.3417 63.28L63.0917 46.48C65.325 44.24 68.675 44.24 70.9083 46.48C73.1417 48.72 73.1417 52.08 70.9083 54.32L54.1583 71.12C53.0417 72.24 51.925 72.8 50.25 72.8Z" fill="#B9BABB"/>
<path d="M83.75 72.8C82.075 72.8 80.9583 72.24 79.8417 71.12L63.0917 54.32C60.8583 52.08 60.8583 48.72 63.0917 46.48C65.325 44.24 68.675 44.24 70.9083 46.48L87.6583 63.28C89.8917 65.52 89.8917 68.88 87.6583 71.12C86.5417 72.24 85.425 72.8 83.75 72.8Z" fill="#B9BABB"/>
</svg>
